<svg xmlns="http://www.w3.org/2000/svg" viewBox="0 0 3000 2400" width="3000" height="2400"><g transform="translate(130.0 158.0) rotate(0.0 1370.0 1043.0) scale(1.8309107177103192 1.8364567477460265)"><svg width="1496.523" height="1135.883" viewBox="0 0 1496.523 1135.883"><g fill-rule="evenodd"><path d="m1378.43 932.813-44.577-612.928c-1.292-17.766-14.846-32.202-32.495-34.611l-298.797-40.779v31.775L801.13 251.589l.437-34.526L323.5 151.818c-22.105-3.017-41.978 13.721-42.764 36.016l-8.892 252.146 44.747 2.826-3.913 100.174-44.398-1.93-14.545 412.426c-.762 21.596 16.753 39.41 38.359 39.013l244.95-4.495 1.131-37.536 264.13-2.87-.369 35.544 281.972-5.174-1.36 37.444 149.152-5.373.361-34.79 109.47-2.009c21.616-.397 38.468-18.856 36.9-40.419z" fill="#8487f6"/><path d="m368.113 383.328-183.457-16.304 4.138-102.452 181.667 21.452z" fill="#8487f6"/><path d="m1407.288 527.2-116.46-9.574-5.246-80.997 115.691 17.218z" fill="#defe48"/><path d="m1496.523 623.087-92.575-2.618-3.503-54.085 91.825 6.147zm-458.299-397.109-201.431-24.681.961-75.903 200.47 27.649z" fill="#8487f6"/><g fill="#defe48"><path d="m1153.335 63.783-112.696-14.87.783-48.913 110.905 16.319zM228 517.758 0 507.845l4.696-104.608 227.217 14.347zm711.012 610.863-266.499 7.262 3.543-117.61 264.13-2.87z"/></g></g></svg></g><g transform="translate(206.0 1296.0) rotate(0.0 389.0 389.0) scale(1.8340362233940986 1.832675329080647)"><svg width="424.201" height="424.516" viewBox="0 0 424.201 424.516"><path d="M196.724 58.979c43.753-23.503 101.887-13.175 140.382 25.797 44.725 45.28 49.798 116.138 8.819 159.365-42.034 26.974-102.304 20.668-144.374-20.826C151.653 174.1 151.213 99.61 196.725 58.98zm-43.188 207.377c60.854 59.815 149.618 63.24 205.035 16.138l.017-.014c18.406-15.65 24.77-20.452 33.553-30.928 47.381-56.512 38.159-143.962-17.193-200.12C321.806-2.485 239.045-14.81 181.311 24.527l-19.522 13.297c-65.213 44.433-79.815 158.192-8.253 228.533z" fill="#031447"/><path d="M374.948 51.431C319.03-5.302 229.979-16.097 171.988 31.509c-63.681 52.278-64.97 152.691 2.342 218.788 66.585 65.383 165.92 63.146 217.811 1.254 47.334-56.457 38.214-143.905-17.193-200.12zm-8.188 174.752c-40.304 46.039-115.338 46.321-165.21-2.869-50.28-49.591-50.492-125.159-3.361-165.618 43.879-37.667 112.894-30.342 156.531 13.786 43.326 43.813 49.6 111.796 12.04 154.701z" fill="#fff" fill-rule="evenodd"/><path d="M288.343 300.152c-41.672 0-83.248-17.542-115.064-48.784-34.132-33.516-52.575-78.214-50.599-122.633 1.747-39.28 18.92-74.22 48.356-98.384 57.415-47.135 147.453-38.338 204.98 20.028 27.239 27.636 44.126 63.464 47.55 100.885 3.466 37.874-7.287 73.832-30.276 101.251-24.079 28.719-58.814 45.576-97.806 47.464-2.378.115-4.762.172-7.141.172zM258.46 3.055c-31.054 0-61.264 9.701-85.521 29.614-28.769 23.618-45.553 57.782-47.262 96.199-1.938 43.57 16.178 87.439 49.703 120.359 31.253 30.689 72.074 47.923 112.96 47.925 2.335 0 4.665-.056 6.998-.169 38.147-1.848 72.117-18.324 95.653-46.396 22.472-26.802 32.979-61.979 29.587-99.05-3.361-36.732-19.946-71.91-46.699-99.053C341.783 19.919 299.391 3.055 258.46 3.055zm30.539 258.91c-32.1 0-64.142-13.556-88.502-37.583-25.696-25.344-39.766-59.188-38.602-92.853 1.026-29.677 13.568-56.302 35.316-74.971 43.934-37.714 113.589-31.621 158.574 13.87 44.414 44.912 49.729 113.762 12.103 156.743-18.652 21.306-45.194 33.636-74.736 34.718-1.383.051-2.77.076-4.153.076zM265.891 34.836c-24.314 0-47.943 7.876-66.725 23.999-21.104 18.116-33.275 43.97-34.272 72.798-1.135 32.83 12.609 65.857 37.71 90.614 24.824 24.485 57.804 37.842 90.439 36.645 28.708-1.051 54.487-13.019 72.589-33.697l1.128.988-1.128-.988c36.596-41.803 31.334-108.858-11.979-152.657-24.602-24.878-56.74-37.701-87.763-37.701z" fill="#031447"/><path d="M169.217 257.764c-8.759-8.759-20.576-11.507-26.169-5.913L5.648 373.283c-2.811 2.812-.417 22.776 10.991 33.562 11.38 10.759 29.703 16.762 34.518 11.948l123.792-135.04c.2-.2.376-.413.54-.633 4.84-5.797 2.177-16.906-6.273-25.355z" fill="#fff" fill-rule="evenodd"/><g fill="#031447"><path d="M45.658 421.898c-8.317 0-21.197-5.595-30.049-13.963-9.01-8.519-12.431-22.282-12.531-29.455-.043-3.106.464-5.212 1.51-6.257l137.467-121.496c3.008-3.014 7.728-4.02 13.224-2.764 5.228 1.192 10.555 4.296 14.999 8.741 8.93 8.93 11.725 20.956 6.363 27.377a6.602 6.602 0 0 1-.632.733L52.263 419.806c-1.432 1.433-3.751 2.092-6.605 2.092zm105.207-171.46c-2.791 0-5.123.84-6.756 2.473L6.642 374.408c-.109.113-.603 1.244-.564 4.031.093 6.663 3.258 19.437 11.592 27.316 11.769 11.126 28.813 15.588 32.427 11.977l123.747-134.994c.195-.196.324-.355.446-.518 4.425-5.304 1.71-15.553-6.132-23.396-4.05-4.05-8.861-6.869-13.545-7.937-1.318-.301-2.573-.449-3.747-.449z"/><path d="M42.98 381.719c12.496 12.496 16.157 29.094 8.177 37.073-7.979 7.979-24.578 4.318-37.073-8.177-12.496-12.496-16.415-29.352-8.436-37.332 7.979-7.979 24.836-4.06 37.332 8.436z" fill-rule="evenodd"/><path d="M39.89 424.471c-8.468 0-18.577-4.505-26.866-12.795-13.203-13.203-16.987-30.901-8.436-39.453 8.552-8.551 26.25-4.767 39.453 8.436 13.061 13.061 16.729 30.643 8.177 39.194-3.124 3.124-7.455 4.618-12.328 4.618zm-23.116-53.796c-4.044 0-7.576 1.18-10.065 3.669-7.256 7.257-3.394 23.381 8.436 35.21 11.891 11.892 27.57 15.56 34.952 8.177 7.382-7.382 3.713-23.062-8.177-34.952-7.771-7.771-17.398-12.105-25.146-12.105z"/></g></svg></g><g transform="translate(876.0 726.0) rotate(0.0 789.0 359.0) scale(1.842123695454227 1.839766108843433)"><svg width="856.62" height="390.267" viewBox="0 0 856.62 390.267"><path d="M819.624 250.605 808.076 66.7l-86.523-8.693-100.746 182.022 2.611 76.944 131.763 4.518 3.434 64.94 69.616 1.238-4.007-63.811 30.896 1.059-4.886-72.683-30.61-1.628zm-66.22-3.522-51.855-2.759 46.434-99.154z" fill="#fff" fill-rule="evenodd"/><path d="M828.23 389.168h-.027l-69.616-1.237a1.5 1.5 0 0 1-1.471-1.421l-3.361-63.567-130.389-4.471a1.5 1.5 0 0 1-1.448-1.448l-2.611-76.944c-.009-.271.055-.54.187-.777L720.24 57.282a1.503 1.503 0 0 1 1.462-.766l86.523 8.693a1.5 1.5 0 0 1 1.347 1.398l11.464 182.572 29.276 1.557a1.5 1.5 0 0 1 1.417 1.397l4.886 72.683c.028.423-.124.839-.418 1.144-.295.305-.71.461-1.129.456l-29.245-1.002 3.903 62.161a1.5 1.5 0 0 1-1.497 1.594zm-68.191-4.212 66.592 1.184-3.905-62.188a1.504 1.504 0 0 1 1.548-1.594l29.237 1.002-4.686-69.7-29.282-1.558a1.5 1.5 0 0 1-1.417-1.404L806.658 68.064l-84.272-8.467L622.32 240.391l2.549 75.129 130.363 4.47a1.5 1.5 0 0 1 1.447 1.42l3.36 63.544zm-6.635-136.373c-.026 0-.053 0-.08-.002l-51.855-2.758a1.5 1.5 0 0 1-1.279-2.134l46.434-99.154a1.5 1.5 0 0 1 2.856.557l5.421 101.913a1.502 1.502 0 0 1-1.499 1.579zm-49.553-5.639 47.966 2.552-5.015-94.27-42.952 91.718z" fill="#031447"/><path d="M267.961 221.259 271.607 12.8 159.136 1.5 6.427 207.346 1.5 295.649l174.336 5.978-2.276 74.403 91.665 1.63 1.276-72.924 40.421 1.386.965-82.738-39.925-2.124zm-86.681-4.611-68.175-3.627 71.674-112.349z" fill="#fff" fill-rule="evenodd"/><path d="M265.226 379.159h-.027l-91.665-1.63a1.497 1.497 0 0 1-1.472-1.546l2.23-72.91-172.843-5.925a1.5 1.5 0 0 1-1.447-1.582l4.927-88.303c.016-.293.118-.575.293-.81L157.932.606a1.508 1.508 0 0 1 1.354-.599l112.472 11.3a1.5 1.5 0 0 1 1.35 1.519l-3.621 207.011 38.479 2.047a1.5 1.5 0 0 1 1.42 1.516l-.965 82.738a1.5 1.5 0 0 1-1.552 1.481l-38.896-1.333-1.249 71.399a1.504 1.504 0 0 1-1.5 1.474zm-90.12-4.602 88.646 1.576 1.25-71.424a1.5 1.5 0 0 1 1.551-1.473l38.887 1.333.93-79.765-38.488-2.047a1.5 1.5 0 0 1-1.42-1.524l3.622-207.078L159.833 3.078 7.899 207.879l-4.816 86.323 172.805 5.925a1.5 1.5 0 0 1 1.448 1.545l-2.229 72.885zm6.174-156.41c-.026 0-.053 0-.08-.002l-68.175-3.626a1.5 1.5 0 0 1-1.185-2.305l71.674-112.349a1.5 1.5 0 0 1 2.764.852l-3.499 115.976a1.503 1.503 0 0 1-1.5 1.455zm-65.528-6.487 64.074 3.408 3.289-109-67.363 105.591z" fill="#031447"/><path d="M471.429 26.269c-73.084-7.458-128.166 52.137-128.938 168.539-.8 120.513 56.442 192.708 133.497 193.943 73.926 1.185 124.211-65.043 120.739-178.638-3.36-109.943-55.051-176.677-125.297-183.844m3.502 278.491c-26.922-.969-46.652-30.062-47.091-104.814-.43-73.153 18.409-98.528 44.561-96.339 25.43 2.129 44.308 30.096 45.675 101.772 1.396 73.209-16.976 100.324-43.145 99.382" fill="#fff" fill-rule="evenodd"/><path d="M477.907 390.267c-.647 0-1.292-.005-1.943-.016-39.211-.629-72.802-18.911-97.139-52.869-25.137-35.074-38.22-84.379-37.834-142.584.221-33.249 4.853-62.763 13.767-87.72 8.54-23.909 20.812-43.156 36.474-57.208 21.799-19.557 49.585-28.233 80.349-25.094 35.714 3.644 66.421 22.32 88.804 54.008 23.131 32.75 36.216 78.146 37.841 131.283 1.982 64.858-13.873 117.771-44.645 148.994-20.144 20.438-46.277 31.206-75.675 31.206zM459.443 27.15c-25.183 0-47.884 8.515-66.208 24.954-15.287 13.715-27.282 32.55-35.652 55.984-8.801 24.639-13.374 53.82-13.593 86.73-.382 57.568 12.506 106.261 37.272 140.817 23.762 33.155 56.525 51.003 94.749 51.616 29.358.474 55.435-10.005 75.433-30.296 30.191-30.632 45.74-82.766 43.782-146.796-1.606-52.546-14.501-97.376-37.292-129.644-21.867-30.959-51.833-49.201-86.658-52.755a116.572 116.572 0 0 0-11.833-.611zm16.792 279.134c-.45 0-.902-.008-1.358-.024-21.862-.786-48.029-19.867-48.537-106.304-.27-45.906 7.05-76.082 21.755-89.688 6.709-6.208 14.931-8.954 24.431-8.156 14.073 1.178 25.202 9.802 33.079 25.632 8.619 17.322 13.319 43.432 13.971 77.605.886 46.429-6.099 77.279-20.761 91.695-6.239 6.134-13.83 9.239-22.58 9.239zm-6.836-201.305c-7.416 0-13.885 2.513-19.265 7.491-14.062 13.01-21.058 42.438-20.793 87.468.494 84.059 25.094 102.584 45.645 103.324 8.472.31 15.778-2.507 21.727-8.355 14.05-13.815 20.734-43.927 19.865-89.499-1.208-63.295-16.526-97.981-44.3-100.306a34.305 34.305 0 0 0-2.878-.122z" fill="#031447"/></svg></g><g transform="translate(1370.0 1514.0) rotate(0.0 707.0 141.0) scale(1.844715165019817 1.8387387034936034)"><svg width="766.514" height="153.366" viewBox="0 0 766.514 153.366"><path d="m749.015 153.366-723.26-5.615c-14.398-.112-25.96-11.48-25.752-25.346l1.482-98.964C1.686 9.975 13.351-.491 27.47.018l711.125 25.629c10.485.378 19.734 10.029 20.706 21.59l7.128 84.787c.997 11.854-6.778 21.424-17.413 21.342z" fill="#031447" fill-rule="evenodd"/><g fill="#fff"><path d="M89.729 86.298c-5.89-.116-10.48-4.403-10.446-11.711.035-7.294 4.651-11.358 10.523-11.215 5.859.142 10.419 4.41 10.404 11.676-.015 7.279-4.605 11.367-10.481 11.251zm4.577-36.144c-8.54-.229-14.394 5.365-15.495 7.988l.037-7.606-16.665-.444-.461 65.855 17.643.246.111-23.655c1.599 2.204 6.07 7.153 15.192 7.31 12.47.214 23.018-9.188 23.015-24.416-.004-15.168-10.627-24.936-23.377-25.278zm112.413 35.25c-5.975-.122-10.507-4.137-10.567-9.886-.06-5.739 4.379-9.453 10.34-9.308s10.36 4.056 10.436 9.772c.075 5.725-4.247 9.544-10.209 9.422zm10.532-31.168.095 7.189c-1.369-3.526-6.332-8.144-15.402-8.387-12.172-.326-22.838 8.726-22.728 22.103.116 13.99 10.996 23.118 23.7 23.344 7.523.134 12.596-4.142 14.037-7.291l.047 3.539c.097 7.408-3.621 11.367-12.59 11.22-5.644-.092-12.199-2.131-16.21-5.361l-6.012 11.59c5.894 4.221 14.681 6.454 23.868 6.58 17.742.245 27.736-8.069 27.464-25.889l-.584-38.22-15.685-.418zm-63.302 10.756.034 6.903-9.694-.221c-15.152-.346-21.759 4.983-21.752 13.839.007 8.343 6.56 14.947 18.337 15.149 7.13.122 11.198-3.512 14.376-8.647l.042 8.098 15.858.274-.251-34.985zm.092 18.386c-1.328 3.761-4.64 6.82-8.42 6.747-4.057-.078-6.411-2.157-6.42-4.986-.016-5.181 8.647-6.581 14.817-6.448zm-25.423-18.999 6.035-12.438 25.229.672-5.933 12.379zm157.837 37.975-5.527-12.608-23.62-.468 5.54 12.668z"/><path d="m257.308 89.278-.123-6.665 33.86.717c.056-1.28.19-2.813.163-4.008-.348-15.246-11.543-24.202-25.145-24.566-14.62-.392-25.371 9.265-25.143 23.289l.178 10.913 16.21.321zm9.066-22.998c5.031.123 8.671 3.284 9.623 8.174l-18.97-.434c.853-4.866 4.305-7.864 9.346-7.74m137.461 26.239c-5.195-.103-9.404-4.126-9.656-11.079-.248-6.857 3.668-10.6 8.849-10.474 5.25.127 9.349 4.049 9.612 10.88.267 6.927-3.542 10.776-8.806 10.672zm.473 12.654c14.486.248 24.307-9.335 23.752-22.987-.549-13.52-11.098-23.376-25.501-23.761-14.328-.384-24.484 9.015-24.017 22.672.471 13.79 11.356 23.829 25.766 24.076z"/><path d="m463.039 93.353-9.824-.195-2.858 12.061 9.852.171z" fill-rule="evenodd"/><path d="m438.084 92.858-.813-19.429-6.305-.15-.482-11.744 6.296.166-.486-11.611 15.053.432.507 11.575 9.787.257.527 11.669-9.801-.233.848 19.368z"/><path d="M352.448 57.069c-5.604-.15-11.805 2.958-13.953 8.167l-.226-7.791-15.035-.4 1.244 45.962 15.871.275-.578-19.863c-.324-11.136 3.588-15.98 7.65-15.88 4.076.1 8.259 3.492 8.585 13.92l.691 22.106 15.664.271-.869-26.103c-.468-14.072-8.61-20.384-19.043-20.663" fill-rule="evenodd"/><path d="M694.929 78.03c4.566.111 8.409 3.875 8.9 10.301.492 6.437-2.795 10.06-7.372 9.97-4.587-.091-8.451-3.869-8.931-10.328-.479-6.449 2.828-10.053 7.404-9.943zm-1.071 32.109c6.692.115 10.843-4.928 11.509-7.267l.517 6.765 12.873.223-4.519-57.841-13.427-.403 1.602 20.973c-1.384-1.931-5.172-6.271-12.24-6.46-9.739-.261-17.434 7.992-16.451 21.542.986 13.597 10.067 22.297 20.136 22.469zM508.323 62.635c-.2-3.904 1.479-5.723 4.562-5.638 1.54.043 3.185.655 4.454 1.419l3.039-10.724c-2.459-1.603-6.259-2.442-9.797-2.549-11.181-.338-17.109 6.368-16.587 16.95l.056 1.143-6.147-.162.563 11.596 6.155.147 1.538 31.191 14.784.256-1.593-31.096 9.57.228-.605-11.523-9.943-.261-.05-.977zm37.419 32.688c-4.895-.097-8.936-4.001-9.305-10.753-.364-6.659 3.253-10.297 8.137-10.178 4.949.12 8.884 3.927 9.262 10.561.383 6.727-3.132 10.468-8.093 10.37zm.686 12.287c13.65.234 22.722-9.078 21.942-22.338-.773-13.133-10.899-22.699-24.476-23.063-13.504-.362-22.89 8.774-22.19 22.036.707 13.39 11.148 23.131 24.724 23.364z"/><path d="M592.703 108.404c5.09.087 10.583-2.955 12.335-7.951l.473 7.447 13.447.233-2.821-43.26-14.048-.374 1.184 18.687c.669 10.559-2.682 15.196-6.348 15.125-3.691-.071-7.592-3.298-8.204-13.259l-1.288-20.943-14.223-.379 1.485 24.908c.809 13.566 8.471 19.602 18.007 19.765m62.307.325 13.816.239-2.262-31.564-13.766-.333zm-.173-43.34-2.04 11.683c-1.425-1.186-2.433-2.073-5.014-2.137-3.579-.088-6.837 4.469-6.122 14.931l1.274 18.655-13.973-.242-2.871-43.167 13.246.353.499 7.321c1.689-4.898 7.029-7.828 11.969-7.696 1.035.028 2.048.127 3.03.301z" fill-rule="evenodd"/></g></svg></g><g transform="translate(886.0 156.0) rotate(0.0 251.0 226.0) scale(1.8322438417262512 1.8356969962798706)"><svg width="273.981" height="246.228" viewBox="0 0 273.981 246.228"><path d="M134.43 7.067c4.465-5.867 11.807-8.292 19.472-6.476 7.602 1.8 14.501 7.532 18.364 15.215l98.768 196.44c3.831 7.618 3.935 16.704.265 23.733-3.689 7.067-10.624 10.971-18.111 10.139L25.296 220.797c-9.632-1.07-18.33-7.407-22.605-16.53-4.289-9.152-3.4-19.55 2.297-27.038L134.43 7.067z" fill="#defe48" fill-rule="evenodd"/><path d="M129.46 184.565c.362-10.397 8.266-17.016 18.851-15.47 10.466 1.529 17.632 10.2 17.31 20.403-.316 10.023-8.009 17.314-18.517 15.985-10.627-1.345-18-10.704-17.644-20.917zm4.907-124.357 34.558 7.007-8.578 89.37-23.27-3.577-2.71-92.799z" fill="#fff"/><path d="M149.522 207.137c-.857 0-1.727-.055-2.607-.166-11.019-1.395-19.345-11.259-18.954-22.458.189-5.444 2.346-10.155 6.071-13.264 3.784-3.158 8.932-4.451 14.496-3.638 11.123 1.625 18.941 10.849 18.592 21.934-.172 5.472-2.368 10.279-6.183 13.536-3.109 2.654-7.092 4.056-11.415 4.056zm-4.191-36.762c-3.617 0-6.878 1.092-9.376 3.178-3.062 2.555-4.836 6.485-4.996 11.065-.337 9.664 6.837 18.175 16.333 19.377 4.469.567 8.621-.569 11.696-3.195 3.165-2.702 4.988-6.732 5.133-11.349.3-9.534-6.44-17.47-16.027-18.871a19.144 19.144 0 0 0-2.763-.205zm-15.871 14.19h.01zm30.887-26.48a1.46 1.46 0 0 1-.228-.018l-23.27-3.578a1.5 1.5 0 0 1-1.271-1.438l-2.71-92.799a1.5 1.5 0 0 1 1.797-1.514l34.559 7.007a1.5 1.5 0 0 1 1.195 1.614l-8.579 89.37a1.498 1.498 0 0 1-1.493 1.356zm-21.807-6.37 20.466 3.146 8.298-86.444-31.382-6.363z" fill="#031447"/></svg></g></svg>