<svg xmlns="http://www.w3.org/2000/svg"  viewBox="0 0 100 100" width="100px" height="100px" baseProfile="basic"><path fill="#1d1d1b" d="M97,44.522c0,2.268-1.152,4.334-3.083,5.527c-1.026,0.635-2.208,0.971-3.416,0.971 c-0.504,0-1.009-0.06-1.501-0.177v37.661C89,92.085,86.084,95,82.5,95h-65c-3.584,0-6.5-2.915-6.5-6.497V50.841 c-0.493,0.117-1.497-3.82-2-3.82c-1.209,0-1.973,0.635-3,0c-1.929-1.191-3-0.231-3-2.499v-7.997c0-2.331,1.259-4.495,3.287-5.648 l40.5-23.028c0.978-0.556,2.089-0.85,3.214-0.85s2.236,0.294,3.214,0.851l40.5,23.028C95.741,32.03,97,34.194,97,36.525" opacity=".35"/><path fill="#f2f2f2" d="M15.5,93.001c-3.584,0-6.5-2.915-6.5-6.497V48.841c-0.493,0.117-0.997,0.178-1.5,0.178 c-1.209,0-2.391-0.336-3.418-0.971C2.152,46.856,1,44.79,1,42.522v-7.997c0-2.331,1.259-4.495,3.287-5.648l40.5-23.028 C45.765,5.294,46.876,5,48.001,5s2.236,0.294,3.214,0.851l40.5,23.028C93.741,30.03,95,32.195,95,34.526v7.997 c0,2.268-1.152,4.334-3.083,5.527c-1.026,0.635-2.208,0.971-3.416,0.971c-0.504,0-1.009-0.06-1.501-0.177v37.661 c0,3.582-2.916,6.497-6.5,6.497h-65V93.001z"/><polygon fill="#d9eeff" points="88.5,34.526 48,11.497 7.5,34.526 7.5,42.522 15.5,38.524 15.5,86.504 80.5,86.504 80.5,38.524 88.5,42.522"/><polygon fill="#ff7575" points="7.5,34.526 8,41.004 15.006,37.111 48,19.013 80.985,37.102 88,41.004 88.5,34.526 48,11.497"/><path fill="#40396e" d="M80.5,88.004h-65c-0.828,0-1.5-0.672-1.5-1.5V40.95l-5.829,2.914 c-0.466,0.231-1.018,0.206-1.46-0.065C6.27,43.525,6,43.042,6,42.522v-7.997c0-0.539,0.29-1.037,0.759-1.304l40.5-23.028 c0.459-0.262,1.023-0.262,1.482,0l40.5,23.028C89.71,33.488,90,33.986,90,34.525v7.997c0,0.52-0.27,1.003-0.711,1.276 c-0.442,0.272-0.995,0.297-1.46,0.065L82,40.95v45.554C82,87.332,81.328,88.004,80.5,88.004z M17,85.004h62v-46.48 c0-0.52,0.27-1.003,0.711-1.276c0.443-0.272,0.994-0.297,1.46-0.065L87,40.096v-4.697L48,13.223L9,35.398v4.697l5.829-2.914 c0.464-0.231,1.018-0.207,1.46,0.065C16.73,37.521,17,38.004,17,38.523V85.004z"/><polygon fill="#40396e" points="14,41.023 15.044,37.093 48,19.032 80.985,37.102 82,41.023 48,22.537" opacity=".35"/><rect width="62" height="9.996" x="17" y="75.008" fill="#70bfff" opacity=".35"/><rect width="65" height="3" x="16" y="58" fill="#40396e"/><circle cx="31" cy="53" r="5" fill="#707cc0"/><path fill="#707cc0" d="M67,58H36v-3c0-3.866,3.134-7,7-7h17c3.866,0,7,3.134,7,7V58z"/><circle cx="31" cy="80" r="5" fill="#707cc0"/><path fill="#707cc0" d="M67,85H36v-3c0-3.866,3.134-7,7-7h17c3.866,0,7,3.134,7,7V85z"/></svg>